<?xml version="1.0" encoding="UTF-8" standalone="no"?>
<svg
   height="600"
   version="1.2"
   width="600"
   id="svg100"
   sodipodi:docname="pattern_1.svg"
   inkscape:version="1.3.2 (091e20e, 2023-11-25, custom)"
   xml:space="preserve"
   xmlns:inkscape="http://www.inkscape.org/namespaces/inkscape"
   xmlns:sodipodi="http://sodipodi.sourceforge.net/DTD/sodipodi-0.dtd"
   xmlns="http://www.w3.org/2000/svg"
   xmlns:svg="http://www.w3.org/2000/svg"><sodipodi:namedview
     id="namedview100"
     pagecolor="#ffffff"
     bordercolor="#000000"
     borderopacity="0.25"
     inkscape:showpageshadow="2"
     inkscape:pageopacity="0.0"
     inkscape:pagecheckerboard="0"
     inkscape:deskcolor="#d1d1d1"
     inkscape:zoom="1.02625"
     inkscape:cx="213.39829"
     inkscape:cy="269.42753"
     inkscape:window-width="1920"
     inkscape:window-height="1017"
     inkscape:window-x="1912"
     inkscape:window-y="-8"
     inkscape:window-maximized="1"
     inkscape:current-layer="svg100"
     showgrid="true"><inkscape:grid
       id="grid101"
       units="px"
       originx="0"
       originy="0"
       spacingx="60"
       spacingy="60"
       empcolor="#0099e5"
       empopacity="0.30196078"
       color="#0099e5"
       opacity="0.14901961"
       empspacing="5"
       dotted="false"
       gridanglex="30"
       gridanglez="30"
       visible="true" /></sodipodi:namedview><defs
     id="defs1" /><rect
     fill="#eaf5ec"
     height="600"
     width="600"
     x="0"
     y="0"
     id="rect1"
     style="display:inline;fill:#c1dfd3;fill-opacity:1;stroke-width:0.75"
     sodipodi:insensitive="true" /><g
     transform="rotate(30,6.3397466,43.660253)"
     id="g1"
     style="stroke:#478147;stroke-opacity:0.16011237"><path
       d="M 15,15 H 25 V 25 H 15 Z"
       fill="none"
       stroke="#8baa8b"
       stroke-opacity="0.08"
       stroke-width="2"
       id="path1"
       style="stroke:#478147;stroke-opacity:0.16011237" /></g><g
     transform="rotate(0.61919901,-713.14481,11989.61)"
     id="g3"
     style="stroke:#478147;stroke-opacity:0.16011237"><path
       d="M 10,10 30,30 M 10,30 30,10"
       fill="none"
       stroke="#8daa8d"
       stroke-opacity="0.08"
       stroke-width="2"
       id="path3"
       style="stroke:#478147;stroke-opacity:0.16011237" /></g><g
     transform="rotate(-30,133.66026,-329.54483)"
     id="g4"
     style="stroke:#478147;stroke-opacity:0.16011237"><path
       d="M 15,15 H 25 V 25 H 15 Z"
       fill="none"
       stroke="#5caa5c"
       stroke-opacity="0.08"
       stroke-width="2"
       id="path4"
       style="stroke:#478147;stroke-opacity:0.16011237" /></g><g
     transform="matrix(1.2154823,0.70175906,-0.70175906,1.2154823,318.98125,-8.3448242)"
     id="g5"
     style="stroke:#478147;stroke-width:0.712495;stroke-opacity:0.16011237"><path
       d="M 15,15 H 25 V 25 H 15 Z"
       fill="none"
       stroke="#73aa73"
       stroke-opacity="0.08"
       stroke-width="1.42499"
       id="path5"
       style="stroke:#478147;stroke-opacity:0.16011237" /></g><g
     transform="rotate(30,128.34212,493.83642)"
     id="g6"
     style="stroke:#478147;stroke-opacity:0.16011237"><path
       d="m 10,20 a 10,10 0 0 0 20,0 10,10 0 0 0 -20,0"
       fill="none"
       stroke="#77aa77"
       stroke-opacity="0.08"
       stroke-width="2"
       id="path6"
       style="stroke:#478147;stroke-opacity:0.16011237" /></g><g
     transform="rotate(0.22205677,-2198.1349,95137.521)"
     id="g7"
     style="stroke:#478147;stroke-opacity:0.16011237"><path
       d="M 10,10 H 30 V 30 H 10 Z m 5,5 H 25 V 25 H 15 Z"
       fill="none"
       stroke="#71aa71"
       stroke-opacity="0.08"
       stroke-width="2"
       id="path7"
       style="stroke:#478147;stroke-opacity:0.16011237" /></g><g
     transform="rotate(15,197.02121,1658.0869)"
     id="g8"
     style="stroke:#478147;stroke-opacity:0.16011237"><path
       d="M 10,20 H 30 M 20,10 v 20"
       fill="none"
       stroke="#91aa91"
       stroke-opacity="0.08"
       stroke-width="2"
       id="path8"
       style="stroke:#478147;stroke-opacity:0.16011237" /></g><g
     transform="rotate(-15,279.08296,-1836.4433)"
     id="g9"
     style="stroke:#478147;stroke-opacity:0.16011237"><path
       d="M 10,20 H 30 L 20,35 Z"
       fill="none"
       stroke="#7baa7b"
       stroke-opacity="0.08"
       stroke-width="2"
       id="path9"
       style="stroke:#478147;stroke-opacity:0.16011237" /></g><g
     transform="rotate(-24.197708,318.32519,-1257.8856)"
     id="g10"
     style="stroke:#478147;stroke-opacity:0.16011237"><path
       d="M 10,10 H 30 V 30 H 10 Z m 5,5 H 25 V 25 H 15 Z"
       fill="none"
       stroke="#79aa79"
       stroke-opacity="0.08"
       stroke-width="2"
       id="path10"
       style="stroke:#478147;stroke-opacity:0.16011237" /></g><g
     transform="rotate(-30,155.62178,36.339747)"
     id="g11"
     style="stroke:#478147;stroke-opacity:0.16011237"><path
       d="m 10,20 a 10,10 0 0 0 20,0 10,10 0 0 0 -20,0"
       fill="none"
       stroke="#9aaa9a"
       stroke-opacity="0.08"
       stroke-width="2"
       id="path11"
       style="stroke:#478147;stroke-opacity:0.16011237" /></g><g
     transform="rotate(15,-208.23459,320.5069)"
     id="g12"
     style="stroke:#478147;stroke-opacity:0.16011237"><path
       d="M 15,15 H 25 V 25 H 15 Z"
       fill="none"
       stroke="#74aa74"
       stroke-opacity="0.08"
       stroke-width="2"
       id="path12"
       style="stroke:#478147;stroke-opacity:0.16011237" /></g><g
     transform="rotate(15,-28.717257,1684.0765)"
     id="g13"
     style="stroke:#478147;stroke-opacity:0.16011237"><path
       d="M 15,15 H 25 V 25 H 15 Z"
       fill="none"
       stroke="#83aa83"
       stroke-opacity="0.08"
       stroke-width="2"
       id="path13"
       style="stroke:#478147;stroke-opacity:0.16011237" /></g><g
     transform="matrix(1.1912234,-0.27262666,0.27563039,1.2027213,118.53988,63.482065)"
     id="g14"
     style="stroke:#478147;stroke-width:0.814367;stroke-opacity:0.16011237"><path
       d="M 10,20 H 30 L 20,35 Z"
       fill="none"
       stroke="#60aa60"
       stroke-opacity="0.08"
       stroke-width="1.62873"
       id="path14"
       style="stroke:#478147;stroke-opacity:0.16011237" /></g><g
     transform="matrix(-1.3179356,-0.0055099,0.00182378,-1.3243613,356.22211,126.63786)"
     id="g15"
     style="stroke:#478147;stroke-width:0.756917;stroke-opacity:0.16011237"><path
       d="M 10,20 H 30 L 20,35 Z"
       fill="none"
       stroke="#99aa99"
       stroke-opacity="0.08"
       stroke-width="1.51383"
       id="path15"
       style="stroke:#478147;stroke-opacity:0.16011237" /></g><g
     transform="rotate(30,14.405853,521.60947)"
     id="g16"
     style="stroke:#478147;stroke-opacity:0.16011237"><path
       d="M 10,20 H 30 M 20,10 v 20"
       fill="none"
       stroke="#65aa65"
       stroke-opacity="0.08"
       stroke-width="2"
       id="path16"
       style="stroke:#478147;stroke-opacity:0.16011237" /></g><g
     transform="rotate(-30,388.8488,-381.49882)"
     id="g18"
     style="stroke:#478147;stroke-opacity:0.16011237"><path
       d="M 10,10 H 30 V 30 H 10 Z m 5,5 H 25 V 25 H 15 Z"
       fill="none"
       stroke="#91aa91"
       stroke-opacity="0.08"
       stroke-width="2"
       id="path18"
       style="stroke:#478147;stroke-opacity:0.16011237" /></g><g
     transform="rotate(23.251004,-20.193633,1416.1447)"
     id="g19"
     style="stroke:#478147;stroke-opacity:0.16011237"><path
       d="M 10,10 H 30 V 30 H 10 Z m 5,5 H 25 V 25 H 15 Z"
       fill="none"
       stroke="#6eaa6e"
       stroke-opacity="0.08"
       stroke-width="2"
       id="path19"
       style="stroke:#478147;stroke-opacity:0.16011237" /></g><g
     transform="rotate(30,164.37822,1081.3137)"
     id="g20"
     style="stroke:#478147;stroke-opacity:0.16011237"><path
       d="M 10,10 H 30 V 30 H 10 Z"
       fill="none"
       stroke="#5faa5f"
       stroke-opacity="0.08"
       stroke-width="2"
       id="path20"
       style="stroke:#478147;stroke-opacity:0.16011237" /></g><g
     transform="rotate(15,-468.72403,122.97879)"
     id="g21"
     style="stroke:#478147;stroke-opacity:0.16011237"><path
       d="M 10,20 H 30 M 20,10 v 20"
       fill="none"
       stroke="#8daa8d"
       stroke-opacity="0.08"
       stroke-width="2"
       id="path21"
       style="stroke:#478147;stroke-opacity:0.16011237" /></g><g
     transform="rotate(0.95545429,-7740.5368,4282.5967)"
     id="g22"
     style="stroke:#478147;stroke-opacity:0.16011237"><path
       d="M 10,10 H 30 V 30 H 10 Z m 5,5 H 25 V 25 H 15 Z"
       fill="none"
       stroke="#74aa74"
       stroke-opacity="0.08"
       stroke-width="2"
       id="path22"
       style="stroke:#478147;stroke-opacity:0.16011237" /></g><g
     transform="rotate(-15,578.72403,-408.72404)"
     id="g23"
     style="stroke:#478147;stroke-opacity:0.16011237"><path
       d="M 10,20 H 30 M 20,10 v 20"
       fill="none"
       stroke="#51aa51"
       stroke-opacity="0.08"
       stroke-width="2"
       id="path23"
       style="stroke:#478147;stroke-opacity:0.16011237" /></g><g
     transform="rotate(15,-378.72403,806.59666)"
     id="g24"
     style="stroke:#478147;stroke-opacity:0.16011237"><path
       d="M 10,20 H 30 L 20,35 Z"
       fill="none"
       stroke="#9eaa9e"
       stroke-opacity="0.08"
       stroke-width="2"
       id="path24"
       style="stroke:#478147;stroke-opacity:0.16011237" /></g><g
     transform="rotate(15,-61.116542,1459.8222)"
     id="g25"
     style="stroke:#478147;stroke-opacity:0.16011237"><path
       d="M 10,10 30,30 M 10,30 30,10"
       fill="none"
       stroke="#77aa77"
       stroke-opacity="0.08"
       stroke-width="2"
       id="path25"
       style="stroke:#478147;stroke-opacity:0.16011237" /></g><g
     transform="rotate(30,-67.583302,663.46788)"
     id="g26"
     style="stroke:#478147;stroke-opacity:0.16011237"><path
       d="M 15,15 H 25 V 25 H 15 Z"
       fill="none"
       stroke="#58aa58"
       stroke-opacity="0.08"
       stroke-width="2"
       id="path26"
       style="stroke:#478147;stroke-opacity:0.16011237" /></g><g
     transform="rotate(30,-37.583302,775.4294)"
     id="g27"
     style="stroke:#478147;stroke-opacity:0.16011237"><path
       d="M 10,10 H 30 V 30 H 10 Z"
       fill="none"
       stroke="#8eaa8e"
       stroke-opacity="0.08"
       stroke-width="2"
       id="path27"
       style="stroke:#478147;stroke-opacity:0.16011237" /></g><g
     transform="rotate(15,-258.72403,1718.0869)"
     id="g28"
     style="stroke:#478147;stroke-opacity:0.16011237"><path
       d="M 10,10 H 30 V 30 H 10 Z m 5,5 H 25 V 25 H 15 Z"
       fill="none"
       stroke="#94aa94"
       stroke-opacity="0.08"
       stroke-width="2"
       id="path28"
       style="stroke:#478147;stroke-opacity:0.16011237" /></g><g
     transform="rotate(30,134.61962,970.66566)"
     id="g29"
     style="stroke:#478147;stroke-opacity:0.16011237"><path
       d="M 10,20 H 30 M 20,10 v 20"
       fill="none"
       stroke="#6caa6c"
       stroke-opacity="0.08"
       stroke-width="2"
       id="path29"
       style="stroke:#478147;stroke-opacity:0.16011237" /></g><g
     transform="rotate(-15,1213.7327,-1713.6079)"
     id="g30"
     style="stroke:#478147;stroke-opacity:0.16011237"><path
       d="M 10,10 H 30 V 30 H 10 Z m 5,5 H 25 V 25 H 15 Z"
       fill="none"
       stroke="#98aa98"
       stroke-opacity="0.08"
       stroke-width="2"
       id="path30"
       style="stroke:#478147;stroke-opacity:0.16011237" /></g><g
     transform="rotate(-15,746.59666,77.021234)"
     id="g31"
     style="stroke:#478147;stroke-opacity:0.16011237"><path
       d="M 10,10 H 30 V 30 H 10 Z m 5,5 H 25 V 25 H 15 Z"
       fill="none"
       stroke="#5caa5c"
       stroke-opacity="0.08"
       stroke-width="2"
       id="path31"
       style="stroke:#478147;stroke-opacity:0.16011237" /></g><g
     transform="rotate(-15,776.59666,-150.85141)"
     id="g32"
     style="stroke:#478147;stroke-opacity:0.16011237"><path
       d="M 10,10 30,30 M 10,30 30,10"
       fill="none"
       stroke="#8daa8d"
       stroke-opacity="0.08"
       stroke-width="2"
       id="path32"
       style="stroke:#478147;stroke-opacity:0.16011237" /></g><g
     transform="rotate(30,-269.54483,357.58331)"
     id="g33"
     style="stroke:#478147;stroke-opacity:0.16011237"><path
       d="M 10,10 H 30 V 30 H 10 Z"
       fill="none"
       stroke="#7baa7b"
       stroke-opacity="0.08"
       stroke-width="2"
       id="path33"
       style="stroke:#478147;stroke-opacity:0.16011237" /></g><g
     transform="rotate(-30,469.54483,-239.54483)"
     id="g34"
     style="stroke:#478147;stroke-opacity:0.16011237"><path
       d="M 10,20 H 30 M 20,10 v 20"
       fill="none"
       stroke="#68aa68"
       stroke-opacity="0.08"
       stroke-width="2"
       id="path34"
       style="stroke:#478147;stroke-opacity:0.16011237" /></g><g
     transform="translate(308.5667,188.62196)"
     id="g35"
     style="stroke:#478147;stroke-opacity:0.16011237"><path
       d="M 10,10 H 30 V 30 H 10 Z m 5,5 H 25 V 25 H 15 Z"
       fill="none"
       stroke="#94aa94"
       stroke-opacity="0.08"
       stroke-width="2"
       id="path35"
       style="stroke:#478147;stroke-opacity:0.16011237" /></g><g
     transform="rotate(15,-576.56903,1064.6789)"
     id="g36"
     style="stroke:#478147;stroke-opacity:0.16011237"><path
       d="m 10,20 a 10,10 0 0 0 20,0 10,10 0 0 0 -20,0"
       fill="none"
       stroke="#9faa9f"
       stroke-opacity="0.08"
       stroke-width="2"
       id="path36"
       style="stroke:#478147;stroke-opacity:0.16011237" /></g><g
     transform="rotate(-30,559.54483,-575.4294)"
     id="g37"
     style="stroke:#478147;stroke-opacity:0.16011237"><path
       d="m 10,20 a 10,10 0 0 0 20,0 10,10 0 0 0 -20,0"
       fill="none"
       stroke="#6faa6f"
       stroke-opacity="0.08"
       stroke-width="2"
       id="path37"
       style="stroke:#478147;stroke-opacity:0.16011237" /></g><g
     transform="rotate(15,-486.59666,1748.0869)"
     id="g38"
     style="stroke:#478147;stroke-opacity:0.16011237"><path
       d="M 10,10 H 30 V 30 H 10 Z"
       fill="none"
       stroke="#73aa73"
       stroke-opacity="0.08"
       stroke-width="2"
       id="path38"
       style="stroke:#478147;stroke-opacity:0.16011237" /></g><g
     transform="rotate(-15,986.5966,-1745.9595)"
     id="g39"
     style="stroke:#478147;stroke-opacity:0.16011237"><path
       d="M 10,10 30,30 M 10,30 30,10"
       fill="none"
       stroke="#53aa53"
       stroke-opacity="0.08"
       stroke-width="2"
       id="path39"
       style="stroke:#478147;stroke-opacity:0.16011237" /></g><g
     transform="matrix(1.1323242,0.65266132,-0.65374768,1.1304426,501.81054,109.0757)"
     id="g40"
     style="stroke:#478147;stroke-width:0.765457;stroke-opacity:0.16011237"><path
       d="M 10,20 H 30 L 20,35 Z"
       fill="none"
       stroke="#7baa7b"
       stroke-opacity="0.08"
       stroke-width="1.53091"
       id="path40"
       style="stroke:#478147;stroke-opacity:0.16011237" /></g><g
     transform="rotate(15,-924.46928,182.97879)"
     id="g41"
     style="stroke:#478147;stroke-opacity:0.16011237"><path
       d="m 10,20 a 10,10 0 0 0 20,0 10,10 0 0 0 -20,0"
       fill="none"
       stroke="#93aa93"
       stroke-opacity="0.08"
       stroke-width="2"
       id="path41"
       style="stroke:#478147;stroke-opacity:0.16011237" /></g><g
     transform="rotate(30,-411.50635,275.62178)"
     id="g42"
     style="stroke:#478147;stroke-opacity:0.16011237"><path
       d="M 10,10 H 30 V 30 H 10 Z"
       fill="none"
       stroke="#9baa9b"
       stroke-opacity="0.08"
       stroke-width="2"
       id="path42"
       style="stroke:#478147;stroke-opacity:0.16011237" /></g><g
     transform="rotate(15,-864.46928,638.72404)"
     id="g43"
     style="stroke:#478147;stroke-opacity:0.16011237"><path
       d="m 10,20 a 10,10 0 0 0 20,0 10,10 0 0 0 -20,0"
       fill="none"
       stroke="#9faa9f"
       stroke-opacity="0.08"
       stroke-width="2"
       id="path43"
       style="stroke:#478147;stroke-opacity:0.16011237" /></g><g
     transform="translate(190,250)"
     id="g44"
     style="stroke:#478147;stroke-opacity:0.16011237"><path
       d="M 10,20 H 30 M 20,10 v 20"
       fill="none"
       stroke="#a0aaa0"
       stroke-opacity="0.08"
       stroke-width="2"
       id="path44"
       style="stroke:#478147;stroke-opacity:0.16011237" /></g><g
     transform="translate(309.25572,249.31098)"
     id="g45"
     style="stroke:#478147;stroke-opacity:0.16011237"><path
       d="M 10,20 H 30 M 20,10 v 20"
       fill="none"
       stroke="#90aa90"
       stroke-opacity="0.08"
       stroke-width="2"
       id="path45"
       style="stroke:#478147;stroke-opacity:0.16011237" /></g><g
     transform="rotate(-15,1091.5354,-802.40665)"
     id="g46"
     style="stroke:#478147;stroke-opacity:0.16011237"><path
       d="M 10,10 H 30 V 30 H 10 Z m 5,5 H 25 V 25 H 15 Z"
       fill="none"
       stroke="#5faa5f"
       stroke-opacity="0.08"
       stroke-width="2"
       id="path46"
       style="stroke:#478147;stroke-opacity:0.16011237" /></g><g
     transform="rotate(-30,671.50635,-545.4294)"
     id="g47"
     style="stroke:#478147;stroke-opacity:0.16011237"><path
       d="M 10,20 H 30 L 20,35 Z"
       fill="none"
       stroke="#8baa8b"
       stroke-opacity="0.08"
       stroke-width="2"
       id="path47"
       style="stroke:#478147;stroke-opacity:0.16011237" /></g><g
     transform="rotate(30,-231.50635,947.39093)"
     id="g48"
     style="stroke:#478147;stroke-opacity:0.16011237"><path
       d="M 10,10 30,30 M 10,30 30,10"
       fill="none"
       stroke="#87aa87"
       stroke-opacity="0.08"
       stroke-width="2"
       id="path48"
       style="stroke:#478147;stroke-opacity:0.16011237" /></g><g
     transform="rotate(30,-57.448622,1139.2635)"
     id="g49"
     style="stroke:#478147;stroke-opacity:0.16011237"><path
       d="M 10,10 H 30 V 30 H 10 Z"
       fill="none"
       stroke="#6baa6b"
       stroke-opacity="0.08"
       stroke-width="2"
       id="path49"
       style="stroke:#478147;stroke-opacity:0.16011237" /></g><g
     transform="rotate(30,-171.50635,1171.3137)"
     id="g50"
     style="stroke:#478147;stroke-opacity:0.16011237"><path
       d="M 10,10 30,30 M 10,30 30,10"
       fill="none"
       stroke="#68aa68"
       stroke-opacity="0.08"
       stroke-width="2"
       id="path50"
       style="stroke:#478147;stroke-opacity:0.16011237" /></g><g
     transform="rotate(-30,633.46788,44.378223)"
     id="g52"
     style="stroke:#478147;stroke-opacity:0.16011237"><path
       d="M 15,15 H 25 V 25 H 15 Z"
       fill="none"
       stroke="#9caa9c"
       stroke-opacity="0.08"
       stroke-width="2"
       id="path52"
       style="stroke:#478147;stroke-opacity:0.16011237" /></g><g
     transform="translate(130,310)"
     id="g53"
     style="stroke:#478147;stroke-opacity:0.16011237"><path
       d="M 10,10 30,30 M 10,30 30,10"
       fill="none"
       stroke="#95aa95"
       stroke-opacity="0.08"
       stroke-width="2"
       id="path53"
       style="stroke:#478147;stroke-opacity:0.16011237" /></g><g
     transform="translate(190.05526,309.31098)"
     id="g55"
     style="stroke:#478147;stroke-opacity:0.16011237"><path
       d="M 10,10 H 30 V 30 H 10 Z"
       fill="none"
       stroke="#56aa56"
       stroke-opacity="0.08"
       stroke-width="2"
       id="path55"
       style="stroke:#478147;stroke-opacity:0.16011237" /></g><g
     transform="translate(250.05526,308.62196)"
     id="g56"
     style="stroke:#478147;stroke-opacity:0.16011237"><path
       d="M 10,20 H 30 M 20,10 v 20"
       fill="none"
       stroke="#65aa65"
       stroke-opacity="0.08"
       stroke-width="2"
       id="path56"
       style="stroke:#478147;stroke-opacity:0.16011237" /></g><g
     transform="rotate(-15,1382.3417,-1230.2143)"
     id="g57"
     style="stroke:#478147;stroke-opacity:0.16011237"><path
       d="M 10,10 H 30 V 30 H 10 Z m 5,5 H 25 V 25 H 15 Z"
       fill="none"
       stroke="#55aa55"
       stroke-opacity="0.08"
       stroke-width="2"
       id="path57"
       style="stroke:#478147;stroke-opacity:0.16011237" /></g><g
     transform="rotate(30,-395.38155,1231.0801)"
     id="g58"
     style="stroke:#478147;stroke-opacity:0.16011237"><path
       d="M 10,10 30,30 M 10,30 30,10"
       fill="none"
       stroke="#79aa79"
       stroke-opacity="0.08"
       stroke-width="2"
       id="path58"
       style="stroke:#478147;stroke-opacity:0.16011237" /></g><g
     transform="rotate(-30,843.46788,-739.35245)"
     id="g59"
     style="stroke:#478147;stroke-opacity:0.16011237"><path
       d="m 10,20 a 10,10 0 0 0 20,0 10,10 0 0 0 -20,0"
       fill="none"
       stroke="#85aa85"
       stroke-opacity="0.08"
       stroke-width="2"
       id="path59"
       style="stroke:#478147;stroke-opacity:0.16011237" /></g><g
     transform="rotate(30,-283.46788,1201.3137)"
     id="g60"
     style="stroke:#478147;stroke-opacity:0.16011237"><path
       d="M 10,20 H 30 L 20,35 Z"
       fill="none"
       stroke="#8baa8b"
       stroke-opacity="0.08"
       stroke-width="2"
       id="path60"
       style="stroke:#478147;stroke-opacity:0.16011237" /></g><g
     transform="rotate(-30,715.4294,186.33974)"
     id="g61"
     style="stroke:#478147;stroke-opacity:0.16011237"><path
       d="M 10,10 H 30 V 30 H 10 Z"
       fill="none"
       stroke="#62aa62"
       stroke-opacity="0.08"
       stroke-width="2"
       id="path61"
       style="stroke:#478147;stroke-opacity:0.16011237" /></g><g
     transform="rotate(15,-1350.2143,470.85141)"
     id="g62"
     style="stroke:#478147;stroke-opacity:0.16011237"><path
       d="M 10,20 H 30 M 20,10 v 20"
       fill="none"
       stroke="#96aa96"
       stroke-opacity="0.08"
       stroke-width="2"
       id="path62"
       style="stroke:#478147;stroke-opacity:0.16011237" /></g><g
     transform="rotate(-15,1466.7182,-292.24436)"
     id="g65"
     style="stroke:#478147;stroke-opacity:0.16011237"><path
       d="M 10,20 H 30 L 20,35 Z"
       fill="none"
       stroke="#73aa73"
       stroke-opacity="0.08"
       stroke-width="2"
       id="path65"
       style="stroke:#478147;stroke-opacity:0.16011237" /></g><g
     transform="matrix(1.4481285,0,0,1.4730198,301.2671,351.97895)"
     id="g66"
     style="stroke:#478147;stroke-width:0.684687;stroke-opacity:0.16011237"><path
       d="M 10,20 H 30 L 20,35 Z"
       fill="none"
       stroke="#80aa80"
       stroke-opacity="0.08"
       stroke-width="1.36937"
       id="path66"
       style="stroke:#478147;stroke-opacity:0.16011237" /></g><g
     transform="rotate(30,-485.4294,895.4294)"
     id="g67"
     style="stroke:#478147;stroke-opacity:0.16011237"><path
       d="M 15,15 H 25 V 25 H 15 Z"
       fill="none"
       stroke="#7daa7d"
       stroke-opacity="0.08"
       stroke-width="2"
       id="path67"
       style="stroke:#478147;stroke-opacity:0.16011237" /></g><g
     transform="matrix(1.1703476,-0.31487192,0.31359371,1.175118,420.37589,305.08901)"
     id="g68"
     style="stroke:#478147;stroke-width:0.823655;stroke-opacity:0.16011237"><path
       d="M 10,20 H 30 L 20,35 Z"
       fill="none"
       stroke="#54aa54"
       stroke-opacity="0.08"
       stroke-width="1.64731"
       id="path68"
       style="stroke:#478147;stroke-opacity:0.16011237" /></g><g
     transform="rotate(-15,1670.2143,-1655.9595)"
     id="g69"
     style="stroke:#478147;stroke-opacity:0.16011237"><path
       d="M 15,15 H 25 V 25 H 15 Z"
       fill="none"
       stroke="#5baa5b"
       stroke-opacity="0.08"
       stroke-width="2"
       id="path69"
       style="stroke:#478147;stroke-opacity:0.16011237" /></g><g
     transform="rotate(-15,1640.9586,-1433.7403)"
     id="g70"
     style="stroke:#478147;stroke-opacity:0.16011237"><path
       d="M 10,10 H 30 V 30 H 10 Z"
       fill="none"
       stroke="#98aa98"
       stroke-opacity="0.08"
       stroke-width="2"
       id="path70"
       style="stroke:#478147;stroke-opacity:0.16011237" /></g><g
     transform="rotate(-15,1658.087,197.02121)"
     id="g71"
     style="stroke:#478147;stroke-opacity:0.16011237"><path
       d="m 10,20 a 10,10 0 0 0 20,0 10,10 0 0 0 -20,0"
       fill="none"
       stroke="#54aa54"
       stroke-opacity="0.08"
       stroke-width="2"
       id="path71"
       style="stroke:#478147;stroke-opacity:0.16011237" /></g><g
     transform="rotate(-30,857.39093,104.37822)"
     id="g72"
     style="stroke:#478147;stroke-opacity:0.16011237"><path
       d="M 15,15 H 25 V 25 H 15 Z"
       fill="none"
       stroke="#50aa50"
       stroke-opacity="0.08"
       stroke-width="2"
       id="path72"
       style="stroke:#478147;stroke-opacity:0.16011237" /></g><g
     transform="rotate(-15,1718.087,-258.72404)"
     id="g73"
     style="stroke:#478147;stroke-opacity:0.16011237"><path
       d="M 10,10 H 30 V 30 H 10 Z m 5,5 H 25 V 25 H 15 Z"
       fill="none"
       stroke="#5aaa5a"
       stroke-opacity="0.08"
       stroke-width="2"
       id="path73"
       style="stroke:#478147;stroke-opacity:0.16011237" /></g><g
     transform="rotate(-30,917.39093,-119.54483)"
     id="g74"
     style="stroke:#478147;stroke-opacity:0.16011237"><path
       d="M 10,10 30,30 M 10,30 30,10"
       fill="none"
       stroke="#75aa75"
       stroke-opacity="0.08"
       stroke-width="2"
       id="path74"
       style="stroke:#478147;stroke-opacity:0.16011237" /></g><g
     transform="rotate(30,-657.39093,701.50635)"
     id="g75"
     style="stroke:#478147;stroke-opacity:0.16011237"><path
       d="M 10,20 H 30 L 20,35 Z"
       fill="none"
       stroke="#56aa56"
       stroke-opacity="0.08"
       stroke-width="2"
       id="path75"
       style="stroke:#478147;stroke-opacity:0.16011237" /></g><g
     transform="rotate(15,-1389.4314,1869.4887)"
     id="g77"
     style="stroke:#478147;stroke-opacity:0.16011237"><path
       d="m 10,20 a 10,10 0 0 0 20,0 10,10 0 0 0 -20,0"
       fill="none"
       stroke="#70aa70"
       stroke-opacity="0.08"
       stroke-width="2"
       id="path77"
       style="stroke:#478147;stroke-opacity:0.16011237" /></g><g
     transform="rotate(-30,1005.9417,-455.47661)"
     id="g78"
     style="stroke:#478147;stroke-opacity:0.16011237"><path
       d="M 10,10 30,30 M 10,30 30,10"
       fill="none"
       stroke="#71aa71"
       stroke-opacity="0.08"
       stroke-width="2"
       id="path78"
       style="stroke:#478147;stroke-opacity:0.16011237" /></g><g
     transform="translate(490,430)"
     id="g79"
     style="stroke:#478147;stroke-opacity:0.16011237"><path
       d="M 10,20 H 30 M 20,10 v 20"
       fill="none"
       stroke="#84aa84"
       stroke-opacity="0.08"
       stroke-width="2"
       id="path79"
       style="stroke:#478147;stroke-opacity:0.16011237" /></g><g
     transform="rotate(-30,1097.3907,-791.31398)"
     id="g80"
     style="stroke:#478147;stroke-opacity:0.16011237"><path
       d="M 15,15 H 25 V 25 H 15 Z"
       fill="none"
       stroke="#94aa94"
       stroke-opacity="0.08"
       stroke-width="2"
       id="path80"
       style="stroke:#478147;stroke-opacity:0.16011237" /></g><g
     transform="matrix(1.5518746,-0.41948738,0.41582355,1.5655482,-9.6057376,477.32601)"
     id="g81"
     style="stroke:#478147;stroke-width:0.619701;stroke-opacity:0.16011237"><path
       d="M 10,20 H 30 L 20,35 Z"
       fill="none"
       stroke="#7eaa7e"
       stroke-opacity="0.08"
       stroke-width="1.2394"
       id="path81"
       style="stroke:#478147;stroke-opacity:0.16011237" /></g><g
     transform="translate(70,488)"
     id="g82"
     style="stroke:#478147;stroke-opacity:0.16011237"><path
       d="M 10,10 30,30 M 10,30 30,10"
       fill="none"
       stroke="#64aa64"
       stroke-opacity="0.08"
       stroke-width="2"
       id="path82"
       style="stroke:#478147;stroke-opacity:0.16011237" /></g><g
     transform="rotate(11.122929,-2764.9656,646.09198)"
     id="g83"
     style="stroke:#478147;stroke-opacity:0.16011237"><path
       d="M 10,10 H 30 V 30 H 10 Z m 5,5 H 25 V 25 H 15 Z"
       fill="none"
       stroke="#76aa76"
       stroke-opacity="0.08"
       stroke-width="2"
       id="path83"
       style="stroke:#478147;stroke-opacity:0.16011237" /></g><g
     transform="matrix(1.2309306,0.33148388,-0.32982686,1.2371147,193.22724,470.54769)"
     id="g84"
     style="stroke:#478147;stroke-width:0.782748;stroke-opacity:0.16011237"><path
       d="M 10,20 H 30 L 20,35 Z"
       fill="none"
       stroke="#76aa76"
       stroke-opacity="0.08"
       stroke-width="1.5655"
       id="path84"
       style="stroke:#478147;stroke-opacity:0.16011237" /></g><g
     transform="rotate(30,-765.6204,730.50635)"
     id="g85"
     style="stroke:#478147;stroke-opacity:0.16011237"><path
       d="M 10,10 H 30 V 30 H 10 Z"
       fill="none"
       stroke="#87aa87"
       stroke-opacity="0.08"
       stroke-width="2"
       id="path85"
       style="stroke:#478147;stroke-opacity:0.16011237" /></g><g
     transform="rotate(-30,1089.3523,-313.46788)"
     id="g86"
     style="stroke:#478147;stroke-opacity:0.16011237"><path
       d="M 10,20 H 30 M 20,10 v 20"
       fill="none"
       stroke="#80aa80"
       stroke-opacity="0.08"
       stroke-width="2"
       id="path86"
       style="stroke:#478147;stroke-opacity:0.16011237" /></g><g
     transform="rotate(-30,1119.3523,-425.4294)"
     id="g87"
     style="stroke:#478147;stroke-opacity:0.16011237"><path
       d="M 10,10 H 30 V 30 H 10 Z m 5,5 H 25 V 25 H 15 Z"
       fill="none"
       stroke="#58aa58"
       stroke-opacity="0.08"
       stroke-width="2"
       id="path87"
       style="stroke:#478147;stroke-opacity:0.16011237" /></g><g
     transform="rotate(15,-1625.9596,1898.0869)"
     id="g88"
     style="stroke:#478147;stroke-opacity:0.16011237"><path
       d="M 10,10 H 30 V 30 H 10 Z"
       fill="none"
       stroke="#78aa78"
       stroke-opacity="0.08"
       stroke-width="2"
       id="path88"
       style="stroke:#478147;stroke-opacity:0.16011237" /></g><g
     transform="translate(490,490)"
     id="g89"
     style="stroke:#478147;stroke-opacity:0.16011237"><path
       d="M 10,10 H 30 V 30 H 10 Z m 5,5 H 25 V 25 H 15 Z"
       fill="none"
       stroke="#6eaa6e"
       stroke-opacity="0.08"
       stroke-width="2"
       id="path89"
       style="stroke:#478147;stroke-opacity:0.16011237" /></g><g
     transform="rotate(30,-619.35245,1291.3137)"
     id="g90"
     style="stroke:#478147;stroke-opacity:0.16011237"><path
       d="M 10,10 H 30 V 30 H 10 Z"
       fill="none"
       stroke="#7caa7c"
       stroke-opacity="0.08"
       stroke-width="2"
       id="path90"
       style="stroke:#478147;stroke-opacity:0.16011237" /></g><g
     transform="rotate(-15,2113.8322,257.02121)"
     id="g91"
     style="stroke:#478147;stroke-opacity:0.16011237"><path
       d="M 10,10 H 30 V 30 H 10 Z"
       fill="none"
       stroke="#7eaa7e"
       stroke-opacity="0.08"
       stroke-width="2"
       id="path91"
       style="stroke:#478147;stroke-opacity:0.16011237" /></g><g
     transform="translate(130.63376,489.36624)"
     id="g92"
     style="stroke:#478147;stroke-opacity:0.16011237"><path
       d="M 10,10 H 30 V 30 H 10 Z"
       fill="none"
       stroke="#6caa6c"
       stroke-opacity="0.08"
       stroke-width="2"
       id="path92"
       style="stroke:#478147;stroke-opacity:0.16011237" /></g><g
     transform="rotate(-45.655062,738.32018,140.57884)"
     id="g93"
     style="stroke:#478147;stroke-opacity:0.16011237"><path
       d="M 10,10 H 30 V 30 H 10 Z"
       fill="none"
       stroke="#7baa7b"
       stroke-opacity="0.08"
       stroke-width="2"
       id="path93"
       style="stroke:#478147;stroke-opacity:0.16011237" /></g><g
     transform="rotate(15,-1973.8322,1016.5965)"
     id="g94"
     style="stroke:#478147;stroke-opacity:0.16011237"><path
       d="M 15,15 H 25 V 25 H 15 Z"
       fill="none"
       stroke="#99aa99"
       stroke-opacity="0.08"
       stroke-width="2"
       id="path94"
       style="stroke:#478147;stroke-opacity:0.16011237" /></g><g
     transform="rotate(-30,1171.3138,-171.50635)"
     id="g95"
     style="stroke:#478147;stroke-opacity:0.16011237"><path
       d="M 10,10 30,30 M 10,30 30,10"
       fill="none"
       stroke="#79aa79"
       stroke-opacity="0.08"
       stroke-width="2"
       id="path95"
       style="stroke:#478147;stroke-opacity:0.16011237" /></g><g
     transform="rotate(-15,2256.2364,-883.34191)"
     id="g96"
     style="stroke:#478147;stroke-opacity:0.16011237"><path
       d="m 10,20 a 10,10 0 0 0 20,0 10,10 0 0 0 -20,0"
       fill="none"
       stroke="#76aa76"
       stroke-opacity="0.08"
       stroke-width="2"
       id="path96"
       style="stroke:#478147;stroke-opacity:0.16011237" /></g><g
     transform="rotate(-15,2286.2364,-1111.2143)"
     id="g97"
     style="stroke:#478147;stroke-opacity:0.16011237"><path
       d="M 10,10 30,30 M 10,30 30,10"
       fill="none"
       stroke="#63aa63"
       stroke-opacity="0.08"
       stroke-width="2"
       id="path97"
       style="stroke:#478147;stroke-opacity:0.16011237" /></g><g
     transform="rotate(0.31812733,-98525.784,99226.782)"
     id="g100"
     style="display:inline;stroke:#478147;stroke-opacity:0.16011237"><path
       d="M 10,10 H 30 V 30 H 10 Z m 5,5 H 25 V 25 H 15 Z"
       fill="none"
       stroke="#64aa64"
       stroke-opacity="0.08"
       stroke-width="2"
       id="path100"
       style="stroke:#478147;stroke-opacity:0.16011237" /></g><g
     transform="rotate(-43.048562,614.76543,-108.7952)"
     id="g101"
     style="stroke:#478147;stroke-opacity:0.16011237"><path
       d="M 10,10 H 30 V 30 H 10 Z m 5,5 H 25 V 25 H 15 Z"
       fill="none"
       stroke="#55aa55"
       stroke-opacity="0.08"
       stroke-width="2"
       id="path101"
       style="stroke:#478147;stroke-opacity:0.16011237" /></g><g
     transform="rotate(-30,754.57501,-403.28174)"
     id="g104"
     style="stroke:#478147;stroke-opacity:0.16011237"><path
       d="m 10,20 a 10,10 0 0 0 20,0 10,10 0 0 0 -20,0"
       fill="none"
       stroke="#6faa6f"
       stroke-opacity="0.08"
       stroke-width="2"
       id="path104"
       style="stroke:#478147;stroke-opacity:0.16011237" /></g><g
     transform="matrix(1.4481285,0,0,1.4730198,420.46756,530.43513)"
     id="g106"
     style="stroke:#478147;stroke-width:0.684687;stroke-opacity:0.16011237"><path
       d="M 10,20 H 30 L 20,35 Z"
       fill="none"
       stroke="#80aa80"
       stroke-opacity="0.08"
       stroke-width="1.36937"
       id="path106"
       style="stroke:#478147;stroke-opacity:0.16011237" /></g><g
     transform="rotate(-4.2518937,7668.5252,-6278.1271)"
     id="g105"
     style="display:inline;fill:#478147;fill-opacity:0.160784;stroke:none;stroke-opacity:0.160112"
     inkscape:label="search"><path
       d="m 9.4753743,29.217178 3.5135327,-2.867935 c 1.962012,1.952843 4.598491,3.078384 7.365852,3.144498 2.76737,0.06622 5.454645,-0.931993 7.507688,-2.788868 2.053032,-1.856878 3.315282,-4.430676 3.526478,-7.1908 0.211193,-2.760114 -0.644781,-5.496038 -2.391417,-7.643616 C 27.250873,9.7228766 24.746757,8.3273936 22.001514,7.9717634 19.256261,7.6161312 16.479265,8.3274686 14.243021,9.9590786 12.006775,11.590697 10.481938,14.018203 9.9829105,16.741013 c -0.4991551,2.722775 0.065571,5.533282 1.5776805,7.852041 l -3.5236784,2.855459 c -0.1166331,0.09402 -0.2134744,0.210333 -0.2850321,0.342057 -0.071472,0.131724 -0.1162052,0.276271 -0.1315534,0.425333 -0.015343,0.149062 -0.001,0.299695 0.042127,0.443226 0.043231,0.143531 0.1143415,0.277016 0.2093557,0.392948 0.094132,0.116643 0.2103227,0.213473 0.3420465,0.28503 0.1317341,0.07147 0.2762811,0.116207 0.4253432,0.131554 0.1490515,0.01534 0.2996833,9.94e-4 0.4432156,-0.04213 0.1435431,-0.04322 0.2771358,-0.11433 0.3929581,-0.209355 z M 21.46062,10.240024 c 1.675095,0.172465 3.261427,0.837783 4.558398,1.911813 1.296981,1.074022 2.246335,2.508535 2.728028,4.122124 0.481685,1.613578 0.474078,3.333764 -0.02186,4.943054 -0.495937,1.609189 -1.457955,3.035312 -2.764383,4.097807 -1.306409,1.062498 -2.898572,1.713768 -4.57512,1.871379 -1.676559,0.15771 -3.362207,-0.185354 -4.843744,-0.985748 -1.481645,-0.800405 -2.692647,-2.022127 -3.479826,-3.510755 -0.787189,-1.488519 -1.115345,-3.177188 -0.942882,-4.852254 0.23127,-2.246236 1.345389,-4.308595 3.097205,-5.733381 1.751816,-1.424807 3.997999,-2.095304 6.244184,-1.864039 z"
       id="path1-5-1"
       style="fill:#478147;fill-opacity:0.160784;stroke:none;stroke-width:1;stroke-dasharray:none;stroke-opacity:0.160112"
       transform="rotate(-10.748106,-769.13967,850.01776)" /><path
       d="m 9.4753743,29.217178 3.5135327,-2.867935 c 1.962012,1.952843 4.598491,3.078384 7.365852,3.144498 2.76737,0.06622 5.454645,-0.931993 7.507688,-2.788868 2.053032,-1.856878 3.315282,-4.430676 3.526478,-7.1908 0.211193,-2.760114 -0.644781,-5.496038 -2.391417,-7.643616 C 27.250873,9.7228766 24.746757,8.3273936 22.001514,7.9717634 19.256261,7.6161312 16.479265,8.3274686 14.243021,9.9590786 12.006775,11.590697 10.481938,14.018203 9.9829105,16.741013 c -0.4991551,2.722775 0.065571,5.533282 1.5776805,7.852041 l -3.5236784,2.855459 c -0.1166331,0.09402 -0.2134744,0.210333 -0.2850321,0.342057 -0.071472,0.131724 -0.1162052,0.276271 -0.1315534,0.425333 -0.015343,0.149062 -0.001,0.299695 0.042127,0.443226 0.043231,0.143531 0.1143415,0.277016 0.2093557,0.392948 0.094132,0.116643 0.2103227,0.213473 0.3420465,0.28503 0.1317341,0.07147 0.2762811,0.116207 0.4253432,0.131554 0.1490515,0.01534 0.2996833,9.94e-4 0.4432156,-0.04213 0.1435431,-0.04322 0.2771358,-0.11433 0.3929581,-0.209355 z M 21.46062,10.240024 c 1.675095,0.172465 3.261427,0.837783 4.558398,1.911813 1.296981,1.074022 2.246335,2.508535 2.728028,4.122124 0.481685,1.613578 0.474078,3.333764 -0.02186,4.943054 -0.495937,1.609189 -1.457955,3.035312 -2.764383,4.097807 -1.306409,1.062498 -2.898572,1.713768 -4.57512,1.871379 -1.676559,0.15771 -3.362207,-0.185354 -4.843744,-0.985748 -1.481645,-0.800405 -2.692647,-2.022127 -3.479826,-3.510755 -0.787189,-1.488519 -1.115345,-3.177188 -0.942882,-4.852254 0.23127,-2.246236 1.345389,-4.308595 3.097205,-5.733381 1.751816,-1.424807 3.997999,-2.095304 6.244184,-1.864039 z"
       id="path102"
       style="fill:#478147;fill-opacity:0.160784;stroke:none;stroke-width:1;stroke-dasharray:none;stroke-opacity:0.160112"
       transform="rotate(-90.734139,-344.53482,109.18895)" /><path
       d="m 9.4753743,29.217178 3.5135327,-2.867935 c 1.962012,1.952843 4.598491,3.078384 7.365852,3.144498 2.76737,0.06622 5.454645,-0.931993 7.507688,-2.788868 2.053032,-1.856878 3.315282,-4.430676 3.526478,-7.1908 0.211193,-2.760114 -0.644781,-5.496038 -2.391417,-7.643616 C 27.250873,9.7228766 24.746757,8.3273936 22.001514,7.9717634 19.256261,7.6161312 16.479265,8.3274686 14.243021,9.9590786 12.006775,11.590697 10.481938,14.018203 9.9829105,16.741013 c -0.4991551,2.722775 0.065571,5.533282 1.5776805,7.852041 l -3.5236784,2.855459 c -0.1166331,0.09402 -0.2134744,0.210333 -0.2850321,0.342057 -0.071472,0.131724 -0.1162052,0.276271 -0.1315534,0.425333 -0.015343,0.149062 -0.001,0.299695 0.042127,0.443226 0.043231,0.143531 0.1143415,0.277016 0.2093557,0.392948 0.094132,0.116643 0.2103227,0.213473 0.3420465,0.28503 0.1317341,0.07147 0.2762811,0.116207 0.4253432,0.131554 0.1490515,0.01534 0.2996833,9.94e-4 0.4432156,-0.04213 0.1435431,-0.04322 0.2771358,-0.11433 0.3929581,-0.209355 z M 21.46062,10.240024 c 1.675095,0.172465 3.261427,0.837783 4.558398,1.911813 1.296981,1.074022 2.246335,2.508535 2.728028,4.122124 0.481685,1.613578 0.474078,3.333764 -0.02186,4.943054 -0.495937,1.609189 -1.457955,3.035312 -2.764383,4.097807 -1.306409,1.062498 -2.898572,1.713768 -4.57512,1.871379 -1.676559,0.15771 -3.362207,-0.185354 -4.843744,-0.985748 -1.481645,-0.800405 -2.692647,-2.022127 -3.479826,-3.510755 -0.787189,-1.488519 -1.115345,-3.177188 -0.942882,-4.852254 0.23127,-2.246236 1.345389,-4.308595 3.097205,-5.733381 1.751816,-1.424807 3.997999,-2.095304 6.244184,-1.864039 z"
       id="path103"
       style="fill:#478147;fill-opacity:0.160784;stroke:none;stroke-width:1;stroke-dasharray:none;stroke-opacity:0.160112"
       transform="rotate(-90.734139,-221.30998,59.04255)" /><path
       d="m 100.58097,38.70545 -3.212702,-3.201325 c 1.741636,-2.151701 2.591232,-4.889599 2.373572,-7.649172 -0.21755,-2.759607 -1.485744,-5.330509 -3.543121,-7.182581 -2.057377,-1.852065 -4.746918,-2.844076 -7.51416,-2.771473 -2.76723,0.0726 -5.401099,1.204284 -7.358497,3.161683 -1.957399,1.957398 -3.089081,4.591266 -3.161683,7.358497 -0.0726,2.767241 0.919408,5.456783 2.771473,7.51416 1.852072,2.057381 4.422974,3.325581 7.182581,3.543121 2.759573,0.21767 5.497471,-0.63193 7.649172,-2.37357 l 3.201325,3.2127 c 0.105475,0.10639 0.231088,0.19081 0.36945,0.2485 0.13835,0.0576 0.28672,0.0873 0.43657,0.0873 0.14985,0 0.29822,-0.0297 0.43658,-0.0873 0.13835,-0.0577 0.26385,-0.14211 0.36944,-0.2485 0.10639,-0.10558 0.19081,-0.23108 0.2485,-0.36944 0.0576,-0.13836 0.0873,-0.28673 0.0873,-0.43658 0,-0.14984 -0.0297,-0.29821 -0.0873,-0.43657 -0.0577,-0.13836 -0.14211,-0.26397 -0.2485,-0.36945 z M 80.476111,28.726818 c 0,-1.68395 0.499348,-3.330079 1.434896,-4.730227 0.935548,-1.400159 2.265288,-2.491438 3.821053,-3.135856 1.555765,-0.644418 3.267682,-0.813029 4.919296,-0.484511 1.651522,0.328518 3.16867,1.13942 4.359382,2.330154 1.190712,1.190724 2.001625,2.707815 2.330109,4.359405 0.328597,1.651591 0.159975,3.363508 -0.484477,4.919228 -0.644453,1.555833 -1.73572,2.885585 -3.135902,3.821087 -1.400068,0.935502 -3.046243,1.434882 -4.73017,1.434882 -2.258108,0 -4.423725,-0.897042 -6.020439,-2.493722 -1.596726,-1.596681 -2.493748,-3.762377 -2.493748,-6.02044 z"
       id="path1-5"
       style="fill:#478147;fill-opacity:0.160784;stroke:none;stroke-width:1;stroke-dasharray:none;stroke-opacity:0.160112"
       transform="rotate(4.2518937,7668.5252,-6278.1271)" /><path
       d="m 223.22653,98.58313 -3.2127,-3.201324 c 1.74164,-2.151701 2.59123,-4.889599 2.37357,-7.649172 -0.21755,-2.759607 -1.48574,-5.330509 -3.54312,-7.182581 -2.05738,-1.852065 -4.74692,-2.844076 -7.51416,-2.771473 -2.76723,0.0726 -5.4011,1.204284 -7.3585,3.161683 -1.95739,1.957398 -3.08908,4.591266 -3.16168,7.358497 -0.0726,2.767241 0.91941,5.456783 2.77147,7.51416 1.85208,2.057381 4.42298,3.32558 7.18259,3.54312 2.75957,0.21767 5.49747,-0.63193 7.64917,-2.373569 l 3.20132,3.212699 c 0.10548,0.10639 0.23109,0.19081 0.36945,0.2485 0.13835,0.0576 0.28672,0.0873 0.43657,0.0873 0.14985,0 0.29822,-0.0297 0.43658,-0.0873 0.13835,-0.0577 0.26385,-0.14211 0.36944,-0.2485 0.10639,-0.10558 0.19081,-0.23108 0.2485,-0.36944 0.0576,-0.13836 0.0873,-0.28673 0.0873,-0.43658 0,-0.14984 -0.0297,-0.29821 -0.0873,-0.43657 -0.0577,-0.13836 -0.14211,-0.26397 -0.2485,-0.36945 z m -20.10486,-9.978631 c 0,-1.68395 0.49935,-3.330079 1.4349,-4.730227 0.93555,-1.400159 2.26529,-2.491438 3.82105,-3.135856 1.55577,-0.644418 3.26768,-0.813029 4.9193,-0.484511 1.65152,0.328518 3.16867,1.13942 4.35938,2.330154 1.19071,1.190724 2.00163,2.707815 2.33011,4.359405 0.3286,1.651591 0.15997,3.363508 -0.48448,4.919228 -0.64445,1.555833 -1.73572,2.885585 -3.1359,3.821087 -1.40007,0.935502 -3.04624,1.434882 -4.73017,1.434882 -2.25811,0 -4.42372,-0.897042 -6.02044,-2.493722 -1.59672,-1.596681 -2.49375,-3.762377 -2.49375,-6.02044 z"
       id="path107"
       style="fill:#478147;fill-opacity:0.160784;stroke:none;stroke-width:1;stroke-dasharray:none;stroke-opacity:0.160112"
       transform="rotate(4.2518937,7668.5252,-6278.1271)" /><path
       d="m 9.4753743,29.217178 3.5135327,-2.867935 c 1.962012,1.952843 4.598491,3.078384 7.365852,3.144498 2.76737,0.06622 5.454645,-0.931993 7.507688,-2.788868 2.053032,-1.856878 3.315282,-4.430676 3.526478,-7.1908 0.211193,-2.760114 -0.644781,-5.496038 -2.391417,-7.643616 C 27.250873,9.7228766 24.746757,8.3273936 22.001514,7.9717634 19.256261,7.6161312 16.479265,8.3274686 14.243021,9.9590786 12.006775,11.590697 10.481938,14.018203 9.9829105,16.741013 c -0.4991551,2.722775 0.065571,5.533282 1.5776805,7.852041 l -3.5236784,2.855459 c -0.1166331,0.09402 -0.2134744,0.210333 -0.2850321,0.342057 -0.071472,0.131724 -0.1162052,0.276271 -0.1315534,0.425333 -0.015343,0.149062 -0.001,0.299695 0.042127,0.443226 0.043231,0.143531 0.1143415,0.277016 0.2093557,0.392948 0.094132,0.116643 0.2103227,0.213473 0.3420465,0.28503 0.1317341,0.07147 0.2762811,0.116207 0.4253432,0.131554 0.1490515,0.01534 0.2996833,9.94e-4 0.4432156,-0.04213 0.1435431,-0.04322 0.2771358,-0.11433 0.3929581,-0.209355 z M 21.46062,10.240024 c 1.675095,0.172465 3.261427,0.837783 4.558398,1.911813 1.296981,1.074022 2.246335,2.508535 2.728028,4.122124 0.481685,1.613578 0.474078,3.333764 -0.02186,4.943054 -0.495937,1.609189 -1.457955,3.035312 -2.764383,4.097807 -1.306409,1.062498 -2.898572,1.713768 -4.57512,1.871379 -1.676559,0.15771 -3.362207,-0.185354 -4.843744,-0.985748 -1.481645,-0.800405 -2.692647,-2.022127 -3.479826,-3.510755 -0.787189,-1.488519 -1.115345,-3.177188 -0.942882,-4.852254 0.23127,-2.246236 1.345389,-4.308595 3.097205,-5.733381 1.751816,-1.424807 3.997999,-2.095304 6.244184,-1.864039 z"
       id="path105"
       style="fill:#478147;fill-opacity:0.160784;stroke:none;stroke-width:1;stroke-dasharray:none;stroke-opacity:0.160112" /></g></svg>
